# xmcd
#
# Track frame offsets: 
#        150
#        14083
#        25699
#        37263
#        48656
#        62466
#        74686
#        88723
#        100938
#        115731
#        129689
#        140928
#        153964
#        169026
#        183891
#        198549
#        214018
#        229053
#        241346
#        255361
#        269164
#        283227
#        293821
#        306508
#        318604
#
# Disc length: 4417 seconds
#
# Revision: 0
# Processed by: cddbd v1.4PL0 Copyright (c) Steve Scherf et al.
# Submitted via: ExactAudioCopy v0.90b4
#
DISCID=88113f19
DTITLE=Robert Lee McCoy - Prowling Nighthawk
DYEAR=2000
DGENRE=Blues
TTITLE0=Tough Luck
TTITLE1=Lonesome World
TTITLE2=G-Man
TTITLE3=Don't Mistreat Your Woman
TTITLE4=Prowling Nighthawk
TTITLE5=Sweet Pepper Mamma
TTITLE6=My Friend Has Forsaken Me
TTITLE7=Mean Black Cat
TTITLE8=Brickyard
TTITLE9=Mamie Lee
TTITLE10=Take It Easy Baby
TTITLE11=I Have Spent My Bonus
TTITLE12=CNA
TTITLE13=Every Day And Night
TTITLE14=Ol' Mose
TTITLE15=You're All I've Got To Live For
TTITLE16=She's Got What It Takes
TTITLE17=Next-Door Neighbor
TTITLE18=Big Apple Blues
TTITLE19=Freight Train Blues
TTITLE20=Good Gamblin'
TTITLE21=Gonna Keep It For My Daddy
TTITLE22=Never Leave Me
TTITLE23=Mamma Don't Allow Me To Stay Out All Night Long
TTITLE24=Friar's Point Blues
EXTD=
EXTT0=
EXTT1=
EXTT2=
EXTT3=
EXTT4=
EXTT5=
EXTT6=
EXTT7=
EXTT8=
EXTT9=
EXTT10=
EXTT11=
EXTT12=
EXTT13=
EXTT14=
EXTT15=
EXTT16=
EXTT17=
EXTT18=
EXTT19=
EXTT20=
EXTT21=
EXTT22=
EXTT23=
EXTT24=
PLAYORDER=
